<?xml version="1.0" encoding="UTF-8"?>
<svg width="700pt" height="700pt" version="1.1" viewBox="0 0 700 700" xmlns="http://www.w3.org/2000/svg">
 <path d="m157.5 315c-28.996 0-52.5 23.504-52.5 52.5v17.5c0 28.996 23.504 52.5 52.5 52.5v70c0 9.6602 7.8398 17.5 17.5 17.5s17.5-7.8398 17.5-17.5v-70c28.996 0 52.5-23.504 52.5-52.5v-17.5c0-28.996-23.504-52.5-52.5-52.5v-262.5c0-9.6602-7.8398-17.5-17.5-17.5s-17.5 7.8398-17.5 17.5zm175-192.5c-28.996 0-52.5 23.504-52.5 52.5v17.5c0 28.996 23.504 52.5 52.5 52.5v262.5c0 9.6602 7.8398 17.5 17.5 17.5s17.5-7.8398 17.5-17.5v-262.5c28.996 0 52.5-23.504 52.5-52.5v-17.5c0-28.996-23.504-52.5-52.5-52.5v-70c0-9.6602-7.8398-17.5-17.5-17.5s-17.5 7.8398-17.5 17.5zm175 122.5c-28.996 0-52.5 23.504-52.5 52.5v17.5c0 28.996 23.504 52.5 52.5 52.5v140c0 9.6602 7.8398 17.5 17.5 17.5s17.5-7.8398 17.5-17.5v-140c28.996 0 52.5-23.504 52.5-52.5v-17.5c0-28.996-23.504-52.5-52.5-52.5v-192.5c0-9.6602-7.8398-17.5-17.5-17.5s-17.5 7.8398-17.5 17.5zm-297.5 122.5v17.5c0 9.6602-7.8398 17.5-17.5 17.5h-35c-9.6602 0-17.5-7.8398-17.5-17.5v-17.5c0-9.6602 7.8398-17.5 17.5-17.5h35c9.6602 0 17.5 7.8398 17.5 17.5zm350-70v17.5c0 9.6602-7.8398 17.5-17.5 17.5h-35c-9.6602 0-17.5-7.8398-17.5-17.5v-17.5c0-9.6602 7.8398-17.5 17.5-17.5h35c9.6602 0 17.5 7.8398 17.5 17.5zm-175-122.5v17.5c0 9.6602-7.8398 17.5-17.5 17.5h-35c-9.6602 0-17.5-7.8398-17.5-17.5v-17.5c0-9.6602 7.8398-17.5 17.5-17.5h35c9.6602 0 17.5 7.8398 17.5 17.5z" fill-rule="evenodd"/>
</svg>
